<?xml version="1.0" encoding="UTF-8"?>
<svg version="1.1" xmlns="http://www.w3.org/2000/svg" width="32" height="32">
<path d="M0 0 C4.90025583 2.08539784 7.63183467 5.27053359 10 10 C10.91469792 15.59490229 11.07496122 21.23570406 7.8125 26.0625 C4.97701587 29.60010401 1.62054595 31.73506061 -2.8671875 32.46875 C-8.76234082 32.52999835 -12.91027142 32.33909543 -17.59765625 28.58203125 C-22.03474417 23.57640282 -22.58635791 19.46828479 -22.41796875 12.94921875 C-21.81040874 8.66222989 -20.22620183 5.85976903 -17 3 C-11.57528041 -0.88266732 -6.4705304 -0.91701557 0 0 Z " fill="#EDCD85" transform="translate(22,0)"/>
<path d="M0 0 C1.67542976 0.28604898 3.34385343 0.61781233 5 1 C6.231394 4.69418201 5.64432764 7.2056261 5 11 C6.98 11.99 8.96 12.98 11 14 C11 15.65 11 17.3 11 19 C9.375 19.8125 9.375 19.8125 7 20 C2.88845951 17.20415247 0.13434662 14.99112511 -1 10 C-1.19087097 6.98733387 -1.26734634 4.00920063 -1 1 C-0.67 0.67 -0.34 0.34 0 0 Z " fill="#171B27" transform="translate(9,7)"/>
<path d="M0 0 C2.36810318 0.94724127 3.75207953 1.65291134 5.25 3.75 C6.19251213 6.57753638 6.1345485 9.03993304 6 12 C5.67 12 5.34 12 5 12 C4.67 10.68 4.34 9.36 4 8 C4 8.99 4 9.98 4 11 C2.125 10.8125 2.125 10.8125 0 10 C-1.375 7.75 -1.375 7.75 -2 5 C-1.125 2.1875 -1.125 2.1875 0 0 Z " fill="#44443A" transform="translate(18,8)"/>
<path d="M0 0 C1.32 0.33 2.64 0.66 4 1 C3.34 1 2.68 1 2 1 C2.165 1.928125 2.33 2.85625 2.5 3.8125 C2.93897276 6.61095134 3 9.18026599 3 12 C3.66 12 4.32 12 5 12 C5 12.66 5 13.32 5 14 C2.03 13.505 2.03 13.505 -1 13 C-2.51403812 8.15507803 -1.36602172 4.7408989 0 0 Z " fill="#EDDA90" transform="translate(15,6)"/>
<path d="M0 0 C2.87704681 2.87704681 2.8661401 4.98420312 3 9 C0.07462687 14.64179104 0.07462687 14.64179104 -4 16 C-4 15.34 -4 14.68 -4 14 C-3.34 13.67 -2.68 13.34 -2 13 C-2 11.02 -2 9.04 -2 7 C-1.01 6.67 -0.02 6.34 1 6 C0.67 4.02 0.34 2.04 0 0 Z " fill="#DAAF66" transform="translate(21,13)"/>
<path d="M0 0 C1.32 0.33 2.64 0.66 4 1 C4 1.66 4 2.32 4 3 C4.66 3 5.32 3 6 3 C6 3.99 6 4.98 6 6 C4.125 5.8125 4.125 5.8125 2 5 C0.75 2.4375 0.75 2.4375 0 0 Z " fill="#766B4F" transform="translate(16,13)"/>
</svg>
